<?xml version="1.0" encoding="UTF-8"?>
<svg id="Layer_2" data-name="Layer 2" xmlns="http://www.w3.org/2000/svg" viewBox="0 0 150.56 188.71">
  <defs>
    <style>
      .cls-1 {
        fill: #231f20;
      }
    </style>
  </defs>
  <g id="Layer_1-2" data-name="Layer 1">
    <g>
      <path class="cls-1" d="M45.52,115.42l-17.51,7.25,2.75,13.17-14.86,6.16L0,51.8l14.86-6.16,53,74.83-14.86,6.16-7.48-11.21ZM25.15,108.6l12.45-5.16-16.82-25.29-5.7-11.14,3.85,11.91,6.22,29.69Z"/>
      <path class="cls-1" d="M48.85,63.55L56.24,0l16.23,1.89-7.28,62.56c-.99,8.55.83,12.28,6.65,12.95s8.43-2.28,9.45-11.08l7.28-62.56,16.1,1.87-7.39,63.55c-2.15,18.46-11.77,25.63-27.25,23.83-15.98-1.86-23.33-11-21.18-29.46Z"/>
      <path class="cls-1" d="M98.8,188.71h-14.84l-14.09-89.42h15.46l6.86,49.76.62,16.34,1.75-15.34,10.1-50.76h10.72l9.48,50.76,1.5,16.46,1.12-17.46,7.73-49.76h15.34l-15.72,89.42h-14.72l-9.35-49.76-1-14.09-1,14.09-9.98,49.76Z"/>
      <path class="cls-1" d="M45.48,147.7v-1.36c0-7.64,5-12,11.79-12s11.86,4.36,11.86,11.86v1.43c0,7.5-5,11.72-11.64,11.72s-12-3.71-12-11.64ZM65.2,147.34v-.86c0-5.64-3-8.43-7.93-8.43s-7.79,2.93-7.79,8.57v.71c0,5.64,2.93,8.07,8,8.07s7.72-2.43,7.72-8.07ZM56.2,149.27v3.93h-3.64v-12.93h5.21c3.64,0,5.21,1.43,5.21,4.21,0,1.5-.64,2.64-2.07,3.21,1.07.5,1.57,1.5,1.57,3.21v1.57c0,.36.07.64.29.71h-3.72c-.07-.21-.21-.43-.21-.79v-1.36c0-1.5-.29-1.79-1.71-1.79h-.93ZM56.2,143.34v2.86h1c1.43,0,2.14-.57,2.14-1.5,0-1.07-.64-1.36-2.14-1.36h-1Z"/>
    </g>
  </g>
</svg>